<?xml version="1.0" standalone="no"?>
<!DOCTYPE svg PUBLIC "-//W3C//DTD SVG 20010904//EN"
 "http://www.w3.org/TR/2001/REC-SVG-20010904/DTD/svg10.dtd">
<svg version="1.0" xmlns="http://www.w3.org/2000/svg"
 width="700.000000pt" height="700.000000pt" viewBox="0 0 700.000000 700.000000"
 preserveAspectRatio="xMidYMid meet">
<metadata>
Created by potrace 1.14, written by Peter Selinger 2001-2017
</metadata>
<g transform="translate(0.000000,700.000000) scale(0.100000,-0.100000)"
fill="#000000" stroke="none">
<path d="M760 6990 c-356 -48 -634 -296 -732 -651 l-23 -84 0 -2750 0 -2750
22 -87 c82 -321 315 -555 638 -639 l90 -24 2745 0 2745 0 90 23 c318 81 556
320 638 640 l22 87 0 2745 0 2745 -22 87 c-81 318 -316 555 -633 640 l-85 23
-2720 1 c-1496 1 -2745 -2 -2775 -6z m2771 -2825 c574 -915 1049 -1663 1054
-1661 7 2 11 453 13 1320 2 1112 0 1317 -12 1322 -7 3 -146 26 -307 52 l-294
48 0 289 0 290 990 0 990 0 0 -289 0 -290 -30 -7 c-16 -4 -130 -26 -252 -49
l-223 -43 -2 -2056 -3 -2056 -465 0 -465 0 -1063 1640 c-584 902 -1069 1641
-1077 1643 -13 3 -15 -151 -15 -1302 l0 -1306 23 -5 c20 -5 584 -95 593 -95 2
0 4 -131 4 -290 l0 -290 -992 2 -993 3 -3 283 c-2 258 -1 283 15 289 9 4 123
27 252 52 l236 46 3 1722 2 1721 -252 49 -253 49 -3 279 c-1 154 0 285 3 292
3 10 157 13 743 13 l738 0 1045 -1665z"/>
</g>
</svg>
